<?xml version="1.0" encoding="UTF-8"?>
<svg xmlns="http://www.w3.org/2000/svg" xmlns:xlink="http://www.w3.org/1999/xlink" width="2937" height="1991" viewBox="0 0 2937 1991">

<path fill-rule="nonzero" fill="rgb(100%, 100%, 100%)" fill-opacity="1" d="M 1665.519531 796.398438 L 1665.519531 796.410156 L 1662.578125 4.691406 L 2929.308594 0 L 2932.25 791.699219 Z M 1665.519531 796.398438 "/>
<path fill-rule="nonzero" fill="rgb(100%, 100%, 100%)" fill-opacity="1" d="M 7.34375 1990.125 L 4.40625 1198.421875 L 1271.128906 1193.726562 L 1274.070312 1985.425781 Z M 7.34375 1990.125 "/>
<path fill-rule="nonzero" fill="rgb(100%, 100%, 100%)" fill-opacity="1" d="M 1669.921875 1983.957031 L 1669.921875 1983.960938 L 1666.980469 1192.253906 L 2933.710938 1187.558594 L 2936.648438 1979.261719 Z M 1669.921875 1983.957031 "/>
<path fill-rule="nonzero" fill="rgb(100%, 0%, 0%)" fill-opacity="1" d="M 2933.710938 1187.554688 L 2933.710938 1187.558594 L 2932.238281 791.699219 L 1665.519531 796.398438 L 1662.578125 4.699219 L 1266.730469 6.171875 L 1269.660156 797.871094 L 2.9375 802.570312 L 4.40625 1198.421875 L 1271.128906 1193.722656 L 1274.070312 1985.425781 L 1669.921875 1983.957031 L 1666.980469 1192.253906 Z M 2933.710938 1187.554688 "/>
<path fill-rule="nonzero" fill="rgb(100%, 0%, 0%)" fill-opacity="1" d="M 2221.820312 206.398438 L 2288.230469 210.820312 L 2356.519531 207.640625 L 2342.199219 293.75 L 2340.460938 356.730469 C 2366.800781 355.5 2393.140625 354.261719 2417.921875 351.308594 C 2442.699219 348.359375 2465.921875 343.691406 2489.140625 339.03125 C 2487.148438 360.859375 2485.160156 382.679688 2485.238281 405.371094 C 2485.328125 428.058594 2487.488281 451.601562 2489.640625 475.140625 C 2464.039062 470.191406 2438.429688 465.238281 2413.679688 462.261719 C 2388.921875 459.28125 2365.011719 458.269531 2341.101562 457.261719 C 2342.210938 480.300781 2343.320312 503.339844 2346.308594 528.289062 C 2349.300781 553.238281 2354.171875 580.109375 2359.039062 606.980469 C 2336.429688 605.191406 2313.820312 603.410156 2291.589844 603.488281 C 2291.019531 603.5 2290.449219 603.5 2289.878906 603.5 C 2267.101562 603.691406 2244.71875 605.878906 2222.339844 608.078125 C 2227.128906 578.199219 2231.921875 548.328125 2234.621094 523.511719 C 2237.320312 498.679688 2237.929688 478.910156 2238.539062 459.140625 C 2233.058594 459.109375 2227.570312 459.078125 2221.980469 459.101562 C 2206.898438 459.160156 2191.140625 459.609375 2172.929688 461.550781 C 2147.980469 464.210938 2118.410156 469.648438 2088.839844 475.101562 C 2091.339844 454 2093.851562 432.898438 2094.011719 410.289062 C 2094.171875 387.679688 2091.988281 363.550781 2089.808594 339.410156 C 2117.53125 344.300781 2145.261719 349.179688 2170.351562 351.828125 C 2195.449219 354.480469 2217.910156 354.890625 2240.371094 355.308594 C 2238.949219 330.929688 2237.519531 306.558594 2234.429688 281.738281 C 2231.339844 256.921875 2226.570312 231.660156 2221.820312 206.398438 Z M 2221.820312 206.398438 "/>
<path fill-rule="nonzero" fill="rgb(100%, 0%, 0%)" fill-opacity="1" d="M 2227.980469 1396.117188 L 2294.390625 1400.546875 L 2362.679688 1397.359375 L 2348.359375 1483.472656 L 2346.628906 1546.449219 C 2372.96875 1545.214844 2399.308594 1543.980469 2424.089844 1541.03125 C 2448.871094 1538.082031 2472.089844 1533.414062 2495.308594 1528.75 C 2493.308594 1550.578125 2491.320312 1572.40625 2491.410156 1595.089844 C 2491.488281 1617.777344 2493.648438 1641.320312 2495.808594 1664.863281 C 2470.199219 1659.914062 2444.601562 1654.964844 2419.839844 1651.984375 C 2395.078125 1649.003906 2371.171875 1647.992188 2347.269531 1646.980469 C 2348.378906 1670.019531 2349.480469 1693.054688 2352.46875 1718.007812 C 2355.460938 1742.960938 2360.328125 1769.832031 2365.199219 1796.699219 C 2342.589844 1794.914062 2319.980469 1793.132812 2297.75 1793.214844 C 2297.179688 1793.214844 2296.621094 1793.21875 2296.050781 1793.222656 C 2273.269531 1793.40625 2250.890625 1795.605469 2228.511719 1797.800781 C 2233.300781 1767.925781 2238.078125 1738.050781 2240.78125 1713.226562 C 2243.480469 1688.40625 2244.089844 1668.636719 2244.710938 1648.867188 C 2239.21875 1648.832031 2233.730469 1648.800781 2228.160156 1648.820312 C 2213.070312 1648.875 2197.308594 1649.332031 2179.101562 1651.273438 C 2154.140625 1653.929688 2124.570312 1659.375 2095 1664.816406 C 2097.511719 1643.722656 2100.019531 1622.625 2100.179688 1600.011719 C 2100.339844 1577.398438 2098.148438 1553.265625 2095.96875 1529.136719 C 2123.699219 1534.019531 2151.421875 1538.90625 2176.519531 1541.554688 C 2201.609375 1544.203125 2224.070312 1544.613281 2246.53125 1545.027344 C 2245.109375 1520.652344 2243.679688 1496.277344 2240.589844 1471.460938 C 2237.5 1446.644531 2232.738281 1421.382812 2227.980469 1396.117188 Z M 2227.980469 1396.117188 "/>
<path fill-rule="nonzero" fill="rgb(100%, 0%, 0%)" fill-opacity="1" d="M 555.566406 1392.777344 L 621.980469 1397.207031 L 690.269531 1394.019531 L 675.953125 1480.132812 L 674.210938 1543.109375 C 700.550781 1541.875 726.890625 1540.640625 751.671875 1537.691406 C 776.453125 1534.742188 799.671875 1530.074219 822.890625 1525.410156 C 820.898438 1547.238281 818.910156 1569.0625 818.992188 1591.75 C 819.078125 1614.4375 821.238281 1637.980469 823.398438 1661.523438 C 797.789062 1656.574219 772.183594 1651.625 747.425781 1648.644531 C 722.667969 1645.664062 698.761719 1644.652344 674.851562 1643.640625 C 675.960938 1666.675781 677.070312 1689.714844 680.058594 1714.667969 C 683.050781 1739.621094 687.917969 1766.488281 692.789062 1793.359375 C 670.179688 1791.574219 647.570312 1789.792969 625.332031 1789.875 C 624.765625 1789.875 624.199219 1789.878906 623.636719 1789.882812 C 600.851562 1790.066406 578.472656 1792.261719 556.09375 1794.460938 C 560.882812 1764.585938 565.667969 1734.707031 568.371094 1709.886719 C 571.070312 1685.066406 571.683594 1665.296875 572.296875 1645.527344 C 566.804688 1645.492188 561.3125 1645.460938 555.730469 1645.480469 C 540.644531 1645.535156 524.894531 1645.992188 506.683594 1647.933594 C 481.734375 1650.589844 452.160156 1656.035156 422.589844 1661.476562 C 425.097656 1640.382812 427.601562 1619.285156 427.761719 1596.671875 C 427.925781 1574.054688 425.738281 1549.925781 423.554688 1525.796875 C 451.28125 1530.679688 479.007812 1535.566406 504.105469 1538.214844 C 529.199219 1540.859375 551.660156 1541.273438 574.121094 1541.683594 C 572.695312 1517.3125 571.269531 1492.9375 568.179688 1468.121094 C 565.085938 1443.304688 560.328125 1418.042969 555.566406 1392.777344 Z M 555.566406 1392.777344 "/>
<path fill-rule="nonzero" fill="rgb(100%, 0%, 0%)" fill-opacity="1" d="M 546.363281 219.261719 L 612.773438 223.691406 L 681.066406 220.5 L 666.746094 306.621094 L 665.003906 369.589844 C 691.347656 368.359375 717.6875 367.121094 742.46875 364.179688 C 767.246094 361.230469 790.464844 356.558594 813.6875 351.890625 C 811.695312 373.71875 809.703125 395.550781 809.789062 418.230469 C 809.871094 440.921875 812.03125 464.460938 814.191406 488.011719 C 788.585938 483.058594 762.976562 478.109375 738.21875 475.128906 C 713.460938 472.148438 689.554688 471.140625 665.648438 470.121094 C 666.753906 493.160156 667.863281 516.199219 670.855469 541.148438 C 673.84375 566.109375 678.714844 592.980469 683.585938 619.839844 C 660.976562 618.058594 638.367188 616.28125 616.132812 616.359375 C 615.5625 616.359375 614.996094 616.359375 614.429688 616.371094 C 591.648438 616.550781 569.269531 618.75 546.890625 620.941406 C 551.675781 591.070312 556.464844 561.191406 559.164062 536.371094 C 561.863281 511.550781 562.476562 491.78125 563.089844 472.011719 C 557.601562 471.980469 552.113281 471.941406 546.53125 471.960938 C 531.445312 472.019531 515.691406 472.480469 497.476562 474.421875 C 472.527344 477.070312 442.953125 482.519531 413.382812 487.960938 C 415.890625 466.859375 418.394531 445.769531 418.558594 423.160156 C 418.71875 400.539062 416.535156 376.410156 414.351562 352.28125 C 442.078125 357.160156 469.804688 362.050781 494.898438 364.691406 C 519.992188 367.351562 542.453125 367.761719 564.914062 368.171875 C 563.488281 343.800781 562.066406 319.421875 558.972656 294.609375 C 555.882812 269.789062 551.121094 244.519531 546.363281 219.261719 Z M 546.363281 219.261719 "/>
</svg>
