{
  "accessors": [
    {
      "bufferView": 2,
      "componentType": 5126,
      "count": 65532,
      "max": [786.906982421875, 1782.720947265625, 1124.1419677734375],
      "min": [-1797.470947265625, 30.64179039001465, -508.72430419921875],
      "type": "VEC3"
    },
    {
      "bufferView": 2,
      "byteOffset": 786384,
      "componentType": 5126,
      "count": 65532,
      "max": [0.9999397993087769, 0.999920129776001, 0.9999762773513794],
      "min": [-0.9999397993087769, -0.999920129776001, -0.9999762773513794],
      "type": "VEC3"
    },
    {
      "bufferView": 3,
      "componentType": 5126,
      "count": 65532,
      "max": [1.0, 1.0, 1.0, 1.0],
      "min": [
        0.03921569138765335, 0.003921568859368563, 0.003921568859368563, 0.0
      ],
      "type": "VEC4"
    },
    {
      "bufferView": 1,
      "componentType": 5126,
      "count": 65532,
      "max": [4.385027885437012, 1.0],
      "min": [0.00021911600197199732, 0.0],
      "type": "VEC2"
    },
    {
      "bufferView": 0,
      "componentType": 5125,
      "count": 178170,
      "type": "SCALAR"
    },
    {
      "bufferView": 2,
      "byteOffset": 1572768,
      "componentType": 5126,
      "count": 65532,
      "max": [257.3236083984375, 1814.843017578125, 1328.7679443359375],
      "min": [-1453.31396484375, 45.64500045776367, -38.03104019165039],
      "type": "VEC3"
    },
    {
      "bufferView": 2,
      "byteOffset": 2359152,
      "componentType": 5126,
      "count": 65532,
      "max": [0.9998763203620911, 0.9955428838729858, 0.9999831914901733],
      "min": [-0.9998763203620911, -0.9955428838729858, -0.9999831914901733],
      "type": "VEC3"
    },
    {
      "bufferView": 3,
      "byteOffset": 1048512,
      "componentType": 5126,
      "count": 65532,
      "max": [1.0, 1.0, 1.0, 1.0],
      "min": [0.0, 0.0, 0.0, 0.0],
      "type": "VEC4"
    },
    {
      "bufferView": 1,
      "byteOffset": 524256,
      "componentType": 5126,
      "count": 65532,
      "max": [25.068889617919922, 1.0],
      "min": [0.0015373659553006291, 0.0],
      "type": "VEC2"
    },
    {
      "bufferView": 0,
      "byteOffset": 712680,
      "componentType": 5125,
      "count": 180858,
      "type": "SCALAR"
    },
    {
      "bufferView": 2,
      "byteOffset": 3145536,
      "componentType": 5126,
      "count": 65532,
      "max": [746.8569946289063, 1863.5050048828125, 1316.0250244140625],
      "min": [-1798.85400390625, 45.78609085083008, -440.3028869628906],
      "type": "VEC3"
    },
    {
      "bufferView": 2,
      "byteOffset": 3931920,
      "componentType": 5126,
      "count": 65532,
      "max": [0.9999566078186035, 0.9997907280921936, 0.9999696016311646],
      "min": [-0.9999566078186035, -0.9997907280921936, -0.9999696016311646],
      "type": "VEC3"
    },
    {
      "bufferView": 3,
      "byteOffset": 2097024,
      "componentType": 5126,
      "count": 65532,
      "max": [0.9647058844566345, 0.6745098233222961, 0.615686297416687, 1.0],
      "min": [0.0, 0.0, 0.0, 0.0],
      "type": "VEC4"
    },
    {
      "bufferView": 1,
      "byteOffset": 1048512,
      "componentType": 5126,
      "count": 65532,
      "max": [27.62714958190918, 1.0],
      "min": [0.005194609984755516, 0.0],
      "type": "VEC2"
    },
    {
      "bufferView": 0,
      "byteOffset": 1436112,
      "componentType": 5125,
      "count": 185580,
      "type": "SCALAR"
    },
    {
      "bufferView": 2,
      "byteOffset": 4718304,
      "componentType": 5126,
      "count": 47386,
      "max": [182.5164031982422, 1882.4639892578125, 1305.1689453125],
      "min": [-528.2495727539063, 1012.81298828125, 675.9345703125],
      "type": "VEC3"
    },
    {
      "bufferView": 2,
      "byteOffset": 5286936,
      "componentType": 5126,
      "count": 47386,
      "max": [0.9997801184654236, 0.9967623949050903, 0.9999920725822449],
      "min": [-0.9997801184654236, -0.9967623949050903, -0.9999920725822449],
      "type": "VEC3"
    },
    {
      "bufferView": 3,
      "byteOffset": 3145536,
      "componentType": 5126,
      "count": 47386,
      "max": [1.0, 1.0, 1.0, 1.0],
      "min": [0.0, 0.0, 0.0, 0.0],
      "type": "VEC4"
    },
    {
      "bufferView": 1,
      "byteOffset": 1572768,
      "componentType": 5126,
      "count": 47386,
      "max": [4.5906901359558105, 1.0],
      "min": [0.00026879648794420063, 0.0],
      "type": "VEC2"
    },
    {
      "bufferView": 0,
      "byteOffset": 2178432,
      "componentType": 5125,
      "count": 127824,
      "type": "SCALAR"
    },
    {
      "bufferView": 2,
      "byteOffset": 5855568,
      "componentType": 5126,
      "count": 4716,
      "max": [226.80929565429688, 1879.1419677734375, 1211.780029296875],
      "min": [-1777.3079833984375, 129.88369750976563, -76.87415313720703],
      "type": "VEC3"
    },
    {
      "bufferView": 2,
      "byteOffset": 5912160,
      "componentType": 5126,
      "count": 4716,
      "max": [0.9994462728500366, 0.9991875290870667, 0.9998037219047546],
      "min": [-0.9903755187988281, -0.9981968998908997, -0.9997385144233704],
      "type": "VEC3"
    },
    {
      "bufferView": 3,
      "byteOffset": 3903712,
      "componentType": 5126,
      "count": 4716,
      "max": [0.9725490212440491, 0.882352888584137, 0.8745098114013672, 1.0],
      "min": [0.43921568989753723, 0.4196077883243561, 0.4784314036369324, 0.0],
      "type": "VEC4"
    },
    {
      "bufferView": 1,
      "byteOffset": 1951856,
      "componentType": 5126,
      "count": 4716,
      "max": [40.27772903442383, 1.0],
      "min": [0.0017502179834991693, 0.0],
      "type": "VEC2"
    },
    {
      "bufferView": 0,
      "byteOffset": 2689728,
      "componentType": 5125,
      "count": 12780,
      "type": "SCALAR"
    }
  ],
  "asset": {
    "extras": {
      "author": "tipatat (https://sketchfab.com/tipatat)",
      "license": "CC-BY-4.0 (http://creativecommons.org/licenses/by/4.0/)",
      "source": "https://sketchfab.com/3d-models/muhammad-ali-tilt-brush-vr-painting-tribute-9d9c3c4739924e14b20c727075123e42",
      "title": "Muhammad Ali Tilt Brush VR Painting Tribute"
    },
    "generator": "Sketchfab-12.68.0",
    "version": "2.0"
  },
  "bufferViews": [
    {
      "buffer": 0,
      "byteLength": 2740848,
      "name": "floatBufferViews",
      "target": 34963
    },
    {
      "buffer": 0,
      "byteLength": 1989584,
      "byteOffset": 2740848,
      "byteStride": 8,
      "name": "floatBufferViews",
      "target": 34962
    },
    {
      "buffer": 0,
      "byteLength": 5968752,
      "byteOffset": 4730432,
      "byteStride": 12,
      "name": "floatBufferViews",
      "target": 34962
    },
    {
      "buffer": 0,
      "byteLength": 3979168,
      "byteOffset": 10699184,
      "byteStride": 16,
      "name": "floatBufferViews",
      "target": 34962
    }
  ],
  "buffers": [
    {
      "byteLength": 14678352,
      "uri": "ali.bin"
    }
  ],
  "extensionsUsed": ["KHR_materials_unlit"],
  "materials": [
    {
      "doubleSided": true,
      "extensions": {
        "KHR_materials_unlit": {}
      },
      "name": "RootNode",
      "pbrMetallicRoughness": {
        "metallicFactor": 0.0
      }
    }
  ],
  "meshes": [
    {
      "name": "All Marker__0",
      "primitives": [
        {
          "attributes": {
            "COLOR_0": 2,
            "NORMAL": 1,
            "POSITION": 0,
            "TEXCOORD_0": 3
          },
          "indices": 4,
          "material": 0,
          "mode": 4
        }
      ]
    },
    {
      "name": "All Marker__0",
      "primitives": [
        {
          "attributes": {
            "COLOR_0": 7,
            "NORMAL": 6,
            "POSITION": 5,
            "TEXCOORD_0": 8
          },
          "indices": 9,
          "material": 0,
          "mode": 4
        }
      ]
    },
    {
      "name": "All Marker__0",
      "primitives": [
        {
          "attributes": {
            "COLOR_0": 12,
            "NORMAL": 11,
            "POSITION": 10,
            "TEXCOORD_0": 13
          },
          "indices": 14,
          "material": 0,
          "mode": 4
        }
      ]
    },
    {
      "name": "All Marker__0",
      "primitives": [
        {
          "attributes": {
            "COLOR_0": 17,
            "NORMAL": 16,
            "POSITION": 15,
            "TEXCOORD_0": 18
          },
          "indices": 19,
          "material": 0,
          "mode": 4
        }
      ]
    },
    {
      "name": "All Highlighter__0",
      "primitives": [
        {
          "attributes": {
            "COLOR_0": 22,
            "NORMAL": 21,
            "POSITION": 20,
            "TEXCOORD_0": 23
          },
          "indices": 24,
          "material": 0,
          "mode": 4
        }
      ]
    }
  ],
  "nodes": [
    {
      "children": [1],
      "matrix": [
        1.0, 0.0, 0.0, 0.0, 0.0, 2.220446049250313e-16, -1.0, 0.0, 0.0, 1.0,
        2.220446049250313e-16, 0.0, 0.0, 0.0, 0.0, 1.0
      ],
      "name": "Sketchfab_model"
    },
    {
      "children": [2],
      "matrix": [
        1.0, 0.0, 0.0, 0.0, 0.0, 0.0, 1.0, 0.0, 0.0, -1.0, 0.0, 0.0, 0.0, 0.0,
        0.0, 1.0
      ],
      "name": "2d89bf5654e04e63a544790c7a82dc44.fbx"
    },
    {
      "children": [3, 8],
      "name": "RootNode"
    },
    {
      "children": [4, 5, 6, 7],
      "name": "All Marker"
    },
    {
      "mesh": 0,
      "name": "All Marker__0"
    },
    {
      "mesh": 1,
      "name": "All Marker__0"
    },
    {
      "mesh": 2,
      "name": "All Marker__0"
    },
    {
      "mesh": 3,
      "name": "All Marker__0"
    },
    {
      "children": [9],
      "name": "All Highlighter"
    },
    {
      "mesh": 4,
      "name": "All Highlighter__0"
    }
  ],
  "scene": 0,
  "scenes": [
    {
      "name": "Sketchfab_Scene",
      "nodes": [0]
    }
  ]
}
