{
  "accessors": [
    {
      "bufferView": 2,
      "componentType": 5126,
      "count": 65532,
      "max": [38.917442321777344, -1.0563520193099976, 32.48006820678711],
      "min": [-32.04282760620117, -23.11051368713379, -28.952791213989258],
      "type": "VEC3"
    },
    {
      "bufferView": 2,
      "byteOffset": 786384,
      "componentType": 5126,
      "count": 65532,
      "max": [0.9999010562896729, 0.9990753531455994, 0.9999854564666748],
      "min": [-0.9999421834945679, -0.9999998807907104, -0.9997075200080872],
      "type": "VEC3"
    },
    {
      "bufferView": 1,
      "componentType": 5126,
      "count": 65532,
      "max": [0.9998779892921448, 0.9173579812049866],
      "min": [0.00012199999764561653, 0.00012199999764561653],
      "type": "VEC2"
    },
    {
      "bufferView": 0,
      "componentType": 5125,
      "count": 277473,
      "type": "SCALAR"
    },
    {
      "bufferView": 2,
      "byteOffset": 1572768,
      "componentType": 5126,
      "count": 65532,
      "max": [35.43235778808594, -3.3840949535369873, 30.943950653076172],
      "min": [-31.322935104370117, -22.07920265197754, -28.321184158325195],
      "type": "VEC3"
    },
    {
      "bufferView": 2,
      "byteOffset": 2359152,
      "componentType": 5126,
      "count": 65532,
      "max": [0.9999740123748779, 0.9580169916152954, 0.9999816417694092],
      "min": [-0.9999901056289673, -0.9999990463256836, -0.9999953508377075],
      "type": "VEC3"
    },
    {
      "bufferView": 1,
      "byteOffset": 524256,
      "componentType": 5126,
      "count": 65532,
      "max": [0.999858021736145, 0.9563189744949341],
      "min": [0.00012199999764561653, 0.00012199999764561653],
      "type": "VEC2"
    },
    {
      "bufferView": 0,
      "byteOffset": 1109892,
      "componentType": 5125,
      "count": 288237,
      "type": "SCALAR"
    },
    {
      "bufferView": 2,
      "byteOffset": 3145536,
      "componentType": 5126,
      "count": 65532,
      "max": [37.261131286621094, -2.580749988555908, 30.115480422973633],
      "min": [-28.40805435180664, -21.904010772705078, -27.827177047729492],
      "type": "VEC3"
    },
    {
      "bufferView": 2,
      "byteOffset": 3931920,
      "componentType": 5126,
      "count": 65532,
      "max": [0.9999626874923706, 0.9809879660606384, 0.9999967813491821],
      "min": [-0.999994158744812, -0.9999986886978149, -0.9999921321868896],
      "type": "VEC3"
    },
    {
      "bufferView": 1,
      "byteOffset": 1048512,
      "componentType": 5126,
      "count": 65532,
      "max": [0.9998700022697449, 0.9155210256576538],
      "min": [0.00026000000070780516, 0.00012399999832268804],
      "type": "VEC2"
    },
    {
      "bufferView": 0,
      "byteOffset": 2262840,
      "componentType": 5125,
      "count": 288684,
      "type": "SCALAR"
    },
    {
      "bufferView": 2,
      "byteOffset": 4718304,
      "componentType": 5126,
      "count": 65532,
      "max": [37.41018295288086, -2.165597915649414, 31.77834129333496],
      "min": [-21.862972259521484, -21.554500579833984, -28.291988372802734],
      "type": "VEC3"
    },
    {
      "bufferView": 2,
      "byteOffset": 5504688,
      "componentType": 5126,
      "count": 65532,
      "max": [0.9999816417694092, 0.9967776536941528, 0.9999232292175293],
      "min": [-0.9999644756317139, -0.9999990463256836, -0.99998939037323],
      "type": "VEC3"
    },
    {
      "bufferView": 1,
      "byteOffset": 1572768,
      "componentType": 5126,
      "count": 65532,
      "max": [0.9998779892921448, 0.9442139863967896],
      "min": [0.00012199999764561653, 0.0001939999929163605],
      "type": "VEC2"
    },
    {
      "bufferView": 0,
      "byteOffset": 3417576,
      "componentType": 5125,
      "count": 280413,
      "type": "SCALAR"
    },
    {
      "bufferView": 2,
      "byteOffset": 6291072,
      "componentType": 5126,
      "count": 65532,
      "max": [36.10405349731445, -1.0563520193099976, 32.31321716308594],
      "min": [-30.27289581298828, -23.094022750854492, -28.952974319458008],
      "type": "VEC3"
    },
    {
      "bufferView": 2,
      "byteOffset": 7077456,
      "componentType": 5126,
      "count": 65532,
      "max": [0.9999734163284302, 0.9950093626976013, 0.9999836683273315],
      "min": [-0.999994158744812, -0.9999985694885254, -0.9999887943267822],
      "type": "VEC3"
    },
    {
      "bufferView": 1,
      "byteOffset": 2097024,
      "componentType": 5126,
      "count": 65532,
      "max": [0.9998769760131836, 0.9495829939842224],
      "min": [0.00012199999764561653, 0.00012199999764561653],
      "type": "VEC2"
    },
    {
      "bufferView": 0,
      "byteOffset": 4539228,
      "componentType": 5125,
      "count": 270990,
      "type": "SCALAR"
    },
    {
      "bufferView": 2,
      "byteOffset": 7863840,
      "componentType": 5126,
      "count": 65532,
      "max": [37.68653869628906, -2.330709934234619, 32.34003448486328],
      "min": [-28.504209518432617, -21.985334396362305, -28.24382209777832],
      "type": "VEC3"
    },
    {
      "bufferView": 2,
      "byteOffset": 8650224,
      "componentType": 5126,
      "count": 65532,
      "max": [0.9999794960021973, 0.9990859627723694, 0.9999790191650391],
      "min": [-0.9999583959579468, -0.9999996423721313, -0.999976634979248],
      "type": "VEC3"
    },
    {
      "bufferView": 1,
      "byteOffset": 2621280,
      "componentType": 5126,
      "count": 65532,
      "max": [0.9998779892921448, 0.9500730037689209],
      "min": [0.00012199999764561653, 0.00012199999764561653],
      "type": "VEC2"
    },
    {
      "bufferView": 0,
      "byteOffset": 5623188,
      "componentType": 5125,
      "count": 257022,
      "type": "SCALAR"
    },
    {
      "bufferView": 2,
      "byteOffset": 9436608,
      "componentType": 5126,
      "count": 65533,
      "max": [38.52469253540039, -1.882627010345459, 32.164241790771484],
      "min": [-30.912757873535156, -21.511699676513672, -28.08503532409668],
      "type": "VEC3"
    },
    {
      "bufferView": 2,
      "byteOffset": 10223004,
      "componentType": 5126,
      "count": 65533,
      "max": [0.999974250793457, 0.9981858134269714, 0.9999853372573853],
      "min": [-0.9999940395355225, -0.9999997615814209, -0.9999827146530151],
      "type": "VEC3"
    },
    {
      "bufferView": 1,
      "byteOffset": 3145536,
      "componentType": 5126,
      "count": 65533,
      "max": [0.9998779892921448, 0.9329829812049866],
      "min": [0.00012199999764561653, 0.00012199999764561653],
      "type": "VEC2"
    },
    {
      "bufferView": 0,
      "byteOffset": 6651276,
      "componentType": 5125,
      "count": 240417,
      "type": "SCALAR"
    },
    {
      "bufferView": 2,
      "byteOffset": 11009400,
      "componentType": 5126,
      "count": 65532,
      "max": [38.05189514160156, -1.0563520193099976, 32.236846923828125],
      "min": [-28.746265411376953, -22.212026596069336, -28.952974319458008],
      "type": "VEC3"
    },
    {
      "bufferView": 2,
      "byteOffset": 11795784,
      "componentType": 5126,
      "count": 65532,
      "max": [0.9999359846115112, 0.999090850353241, 0.9999759197235107],
      "min": [-0.9999901056289673, -0.9999992847442627, -0.9999827146530151],
      "type": "VEC3"
    },
    {
      "bufferView": 1,
      "byteOffset": 3669800,
      "componentType": 5126,
      "count": 65532,
      "max": [0.9998779892921448, 0.9578859806060791],
      "min": [0.00012199999764561653, 0.00012199999764561653],
      "type": "VEC2"
    },
    {
      "bufferView": 0,
      "byteOffset": 7612944,
      "componentType": 5125,
      "count": 212589,
      "type": "SCALAR"
    },
    {
      "bufferView": 2,
      "byteOffset": 12582168,
      "componentType": 5126,
      "count": 65532,
      "max": [38.05189514160156, -1.7165260314941406, 32.160118103027344],
      "min": [-31.031789779663086, -23.126436233520508, -28.697921752929688],
      "type": "VEC3"
    },
    {
      "bufferView": 2,
      "byteOffset": 13368552,
      "componentType": 5126,
      "count": 65532,
      "max": [0.9999794960021973, 0.9983683228492737, 0.9999430179595947],
      "min": [-0.9999810457229614, -0.9999985694885254, -0.9999550580978394],
      "type": "VEC3"
    },
    {
      "bufferView": 1,
      "byteOffset": 4194056,
      "componentType": 5126,
      "count": 65532,
      "max": [0.9998779892921448, 0.9451900124549866],
      "min": [0.00012199999764561653, 0.00012199999764561653],
      "type": "VEC2"
    },
    {
      "bufferView": 0,
      "byteOffset": 8463300,
      "componentType": 5125,
      "count": 186828,
      "type": "SCALAR"
    },
    {
      "bufferView": 2,
      "byteOffset": 14154936,
      "componentType": 5126,
      "count": 65532,
      "max": [38.550411224365234, -1.8206599950790405, 32.31052017211914],
      "min": [-30.379425048828125, -23.13800811767578, -28.548954010009766],
      "type": "VEC3"
    },
    {
      "bufferView": 2,
      "byteOffset": 14941320,
      "componentType": 5126,
      "count": 65532,
      "max": [0.9999794960021973, 0.9989452362060547, 0.9997088313102722],
      "min": [-0.9999901056289673, -0.9999980926513672, -0.9999711513519287],
      "type": "VEC3"
    },
    {
      "bufferView": 1,
      "byteOffset": 4718312,
      "componentType": 5126,
      "count": 65532,
      "max": [0.9998779892921448, 0.9497680068016052],
      "min": [0.00012199999764561653, 0.00012199999764561653],
      "type": "VEC2"
    },
    {
      "bufferView": 0,
      "byteOffset": 9210612,
      "componentType": 5125,
      "count": 161076,
      "type": "SCALAR"
    },
    {
      "bufferView": 2,
      "byteOffset": 15727704,
      "componentType": 5126,
      "count": 65533,
      "max": [38.609893798828125, -1.6484440565109253, 32.45033264160156],
      "min": [-31.09056854248047, -22.978374481201172, -28.952974319458008],
      "type": "VEC3"
    },
    {
      "bufferView": 2,
      "byteOffset": 16514100,
      "componentType": 5126,
      "count": 65533,
      "max": [0.9999816417694092, 0.9981745481491089, 0.9999325275421143],
      "min": [-0.99985671043396, -0.9999974966049194, -0.9999120235443115],
      "type": "VEC3"
    },
    {
      "bufferView": 1,
      "byteOffset": 5242568,
      "componentType": 5126,
      "count": 65533,
      "max": [0.9998779892921448, 0.9500700235366821],
      "min": [0.00012199999764561653, 0.00012199999764561653],
      "type": "VEC2"
    },
    {
      "bufferView": 0,
      "byteOffset": 9854916,
      "componentType": 5125,
      "count": 133464,
      "type": "SCALAR"
    },
    {
      "bufferView": 2,
      "byteOffset": 17300496,
      "componentType": 5126,
      "count": 65533,
      "max": [38.60703659057617, -1.8205490112304688, 32.350154876708984],
      "min": [-31.924089431762695, -23.099925994873047, -28.815242767333984],
      "type": "VEC3"
    },
    {
      "bufferView": 2,
      "byteOffset": 18086892,
      "componentType": 5126,
      "count": 65533,
      "max": [0.9999737739562988, 0.9981986880302429, 0.9998873472213745],
      "min": [-0.9999421834945679, -0.9999979734420776, -0.999975323677063],
      "type": "VEC3"
    },
    {
      "bufferView": 1,
      "byteOffset": 5766832,
      "componentType": 5126,
      "count": 65533,
      "max": [0.9998779892921448, 0.952551007270813],
      "min": [0.00012199999764561653, 0.00012199999764561653],
      "type": "VEC2"
    },
    {
      "bufferView": 0,
      "byteOffset": 10388772,
      "componentType": 5125,
      "count": 104355,
      "type": "SCALAR"
    },
    {
      "bufferView": 2,
      "byteOffset": 18873288,
      "componentType": 5126,
      "count": 53586,
      "max": [38.67876052856445, -1.0563520193099976, 32.367496490478516],
      "min": [-32.03306198120117, -22.978374481201172, -28.952974319458008],
      "type": "VEC3"
    },
    {
      "bufferView": 2,
      "byteOffset": 19516320,
      "componentType": 5126,
      "count": 53586,
      "max": [0.9999816417694092, 0.9960912466049194, 0.9999467134475708],
      "min": [-0.9999669790267944, -0.9999939203262329, -0.9999172687530518],
      "type": "VEC3"
    },
    {
      "bufferView": 1,
      "byteOffset": 6291096,
      "componentType": 5126,
      "count": 53586,
      "max": [0.9998779892921448, 0.9415580034255981],
      "min": [0.00012199999764561653, 0.00012199999764561653],
      "type": "VEC2"
    },
    {
      "bufferView": 0,
      "byteOffset": 10806192,
      "componentType": 5125,
      "count": 64980,
      "type": "SCALAR"
    }
  ],
  "asset": {
    "extras": {
      "author": "LZ Creation (https://sketchfab.com/jmch)",
      "license": "CC-BY-4.0 (http://creativecommons.org/licenses/by/4.0/)",
      "source": "https://sketchfab.com/3d-models/fenis-castle-7c4e3bf96e7641b9987dde856547c3c3",
      "title": "Fénis Castle"
    },
    "generator": "Sketchfab-13.42.0",
    "version": "2.0"
  },
  "bufferViews": [
    {
      "buffer": 0,
      "byteLength": 11066112,
      "name": "floatBufferViews",
      "target": 34963
    },
    {
      "buffer": 0,
      "byteLength": 6719784,
      "byteOffset": 11066112,
      "byteStride": 8,
      "name": "floatBufferViews",
      "target": 34962
    },
    {
      "buffer": 0,
      "byteLength": 20159352,
      "byteOffset": 17785896,
      "byteStride": 12,
      "name": "floatBufferViews",
      "target": 34962
    }
  ],
  "buffers": [
    {
      "byteLength": 37945248,
      "uri": "castle.bin"
    }
  ],
  "images": [
    {
      "uri": "textures/Fenis_Material_u1_v1_baseColor.jpeg"
    }
  ],
  "materials": [
    {
      "doubleSided": true,
      "name": "Fenis_Material_u1_v1",
      "pbrMetallicRoughness": {
        "baseColorTexture": {
          "index": 0
        },
        "metallicFactor": 0.0
      }
    }
  ],
  "meshes": [
    {
      "name": "Object_0",
      "primitives": [
        {
          "attributes": {
            "NORMAL": 1,
            "POSITION": 0,
            "TEXCOORD_0": 2
          },
          "indices": 3,
          "material": 0,
          "mode": 4
        }
      ]
    },
    {
      "name": "Object_1",
      "primitives": [
        {
          "attributes": {
            "NORMAL": 5,
            "POSITION": 4,
            "TEXCOORD_0": 6
          },
          "indices": 7,
          "material": 0,
          "mode": 4
        }
      ]
    },
    {
      "name": "Object_2",
      "primitives": [
        {
          "attributes": {
            "NORMAL": 9,
            "POSITION": 8,
            "TEXCOORD_0": 10
          },
          "indices": 11,
          "material": 0,
          "mode": 4
        }
      ]
    },
    {
      "name": "Object_3",
      "primitives": [
        {
          "attributes": {
            "NORMAL": 13,
            "POSITION": 12,
            "TEXCOORD_0": 14
          },
          "indices": 15,
          "material": 0,
          "mode": 4
        }
      ]
    },
    {
      "name": "Object_4",
      "primitives": [
        {
          "attributes": {
            "NORMAL": 17,
            "POSITION": 16,
            "TEXCOORD_0": 18
          },
          "indices": 19,
          "material": 0,
          "mode": 4
        }
      ]
    },
    {
      "name": "Object_5",
      "primitives": [
        {
          "attributes": {
            "NORMAL": 21,
            "POSITION": 20,
            "TEXCOORD_0": 22
          },
          "indices": 23,
          "material": 0,
          "mode": 4
        }
      ]
    },
    {
      "name": "Object_6",
      "primitives": [
        {
          "attributes": {
            "NORMAL": 25,
            "POSITION": 24,
            "TEXCOORD_0": 26
          },
          "indices": 27,
          "material": 0,
          "mode": 4
        }
      ]
    },
    {
      "name": "Object_7",
      "primitives": [
        {
          "attributes": {
            "NORMAL": 29,
            "POSITION": 28,
            "TEXCOORD_0": 30
          },
          "indices": 31,
          "material": 0,
          "mode": 4
        }
      ]
    },
    {
      "name": "Object_8",
      "primitives": [
        {
          "attributes": {
            "NORMAL": 33,
            "POSITION": 32,
            "TEXCOORD_0": 34
          },
          "indices": 35,
          "material": 0,
          "mode": 4
        }
      ]
    },
    {
      "name": "Object_9",
      "primitives": [
        {
          "attributes": {
            "NORMAL": 37,
            "POSITION": 36,
            "TEXCOORD_0": 38
          },
          "indices": 39,
          "material": 0,
          "mode": 4
        }
      ]
    },
    {
      "name": "Object_10",
      "primitives": [
        {
          "attributes": {
            "NORMAL": 41,
            "POSITION": 40,
            "TEXCOORD_0": 42
          },
          "indices": 43,
          "material": 0,
          "mode": 4
        }
      ]
    },
    {
      "name": "Object_11",
      "primitives": [
        {
          "attributes": {
            "NORMAL": 45,
            "POSITION": 44,
            "TEXCOORD_0": 46
          },
          "indices": 47,
          "material": 0,
          "mode": 4
        }
      ]
    },
    {
      "name": "Object_12",
      "primitives": [
        {
          "attributes": {
            "NORMAL": 49,
            "POSITION": 48,
            "TEXCOORD_0": 50
          },
          "indices": 51,
          "material": 0,
          "mode": 4
        }
      ]
    }
  ],
  "nodes": [
    {
      "children": [1],
      "matrix": [
        1.0, 0.0, 0.0, 0.0, 0.0, -1.0, -4.440892098500626e-16, 0.0, 0.0,
        4.440892098500626e-16, -1.0, 0.0, 0.0, 0.0, 0.0, 1.0
      ],
      "name": "Sketchfab_model"
    },
    {
      "children": [2, 3, 4, 5, 6, 7, 8, 9, 10, 11, 12, 13, 14],
      "name": "Fenis.obj.cleaner.materialmerger.gles"
    },
    {
      "mesh": 0,
      "name": "Object_2"
    },
    {
      "mesh": 1,
      "name": "Object_3"
    },
    {
      "mesh": 2,
      "name": "Object_4"
    },
    {
      "mesh": 3,
      "name": "Object_5"
    },
    {
      "mesh": 4,
      "name": "Object_6"
    },
    {
      "mesh": 5,
      "name": "Object_7"
    },
    {
      "mesh": 6,
      "name": "Object_8"
    },
    {
      "mesh": 7,
      "name": "Object_9"
    },
    {
      "mesh": 8,
      "name": "Object_10"
    },
    {
      "mesh": 9,
      "name": "Object_11"
    },
    {
      "mesh": 10,
      "name": "Object_12"
    },
    {
      "mesh": 11,
      "name": "Object_13"
    },
    {
      "mesh": 12,
      "name": "Object_14"
    }
  ],
  "samplers": [
    {
      "magFilter": 9729,
      "minFilter": 9987,
      "wrapS": 10497,
      "wrapT": 10497
    }
  ],
  "scene": 0,
  "scenes": [
    {
      "name": "Sketchfab_Scene",
      "nodes": [0]
    }
  ],
  "textures": [
    {
      "sampler": 0,
      "source": 0
    }
  ]
}
