{
  "accessors": [
    {
      "bufferView": 2,
      "componentType": 5126,
      "count": 65532,
      "max": [0.2261393666267395, 0.4703226685523987, 0.29517266154289246],
      "min": [-0.12714819610118866, -0.4234418272972107, -0.22216835618019104],
      "type": "VEC3"
    },
    {
      "bufferView": 2,
      "byteOffset": 786384,
      "componentType": 5126,
      "count": 65532,
      "max": [0.9999984502792358, 0.9998331069946289, 0.9999961853027344],
      "min": [-0.9999723434448242, -0.9999775290489197, -0.9999476671218872],
      "type": "VEC3"
    },
    {
      "bufferView": 3,
      "componentType": 5126,
      "count": 65532,
      "max": [0.9999334812164307, 0.9999985098838806, 0.9999913573265076, 1.0],
      "min": [
        -0.9999381303787231, -0.9999917149543762, -0.9998168349266052, -1.0
      ],
      "type": "VEC4"
    },
    {
      "bufferView": 1,
      "componentType": 5126,
      "count": 65532,
      "max": [0.9999895691871643, 0.9999517798423767],
      "min": [2.4553388357162476e-5, 0.007096290588378906],
      "type": "VEC2"
    },
    {
      "bufferView": 1,
      "byteOffset": 524256,
      "componentType": 5126,
      "count": 65532,
      "max": [0.9999895691871643, 0.9999517798423767],
      "min": [2.4553388357162476e-5, 0.007096290588378906],
      "type": "VEC2"
    },
    {
      "bufferView": 1,
      "byteOffset": 1048512,
      "componentType": 5126,
      "count": 65532,
      "max": [0.9999895691871643, 0.9999517798423767],
      "min": [2.4553388357162476e-5, 0.007096290588378906],
      "type": "VEC2"
    },
    {
      "bufferView": 1,
      "byteOffset": 1572768,
      "componentType": 5126,
      "count": 65532,
      "max": [0.9999895691871643, 0.9999517798423767],
      "min": [2.4553388357162476e-5, 0.007096290588378906],
      "type": "VEC2"
    },
    {
      "bufferView": 0,
      "componentType": 5125,
      "count": 362466,
      "type": "SCALAR"
    },
    {
      "bufferView": 2,
      "byteOffset": 1572768,
      "componentType": 5126,
      "count": 62637,
      "max": [0.2332337498664856, 0.3410031795501709, 0.22107601165771484],
      "min": [-0.2393617033958435, -0.47574013471603394, -0.29356104135513306],
      "type": "VEC3"
    },
    {
      "bufferView": 2,
      "byteOffset": 2324412,
      "componentType": 5126,
      "count": 62637,
      "max": [0.9999665021896362, 0.9998438954353333, 0.999964714050293],
      "min": [-0.9999712109565735, -0.9999999403953552, -0.9999657273292542],
      "type": "VEC3"
    },
    {
      "bufferView": 3,
      "byteOffset": 1048512,
      "componentType": 5126,
      "count": 62637,
      "max": [0.9999870657920837, 0.9999984502792358, 0.9999879002571106, -1.0],
      "min": [
        -0.9999821782112122, -0.9999966025352478, -0.9999334812164307, -1.0
      ],
      "type": "VEC4"
    },
    {
      "bufferView": 1,
      "byteOffset": 2097024,
      "componentType": 5126,
      "count": 62637,
      "max": [0.997992753982544, 0.9999512434005737],
      "min": [4.29605133831501e-5, 0.0061203837394714355],
      "type": "VEC2"
    },
    {
      "bufferView": 1,
      "byteOffset": 2598120,
      "componentType": 5126,
      "count": 62637,
      "max": [0.997992753982544, 0.9999512434005737],
      "min": [4.29605133831501e-5, 0.0061203837394714355],
      "type": "VEC2"
    },
    {
      "bufferView": 1,
      "byteOffset": 3099216,
      "componentType": 5126,
      "count": 62637,
      "max": [0.997992753982544, 0.9999512434005737],
      "min": [4.29605133831501e-5, 0.0061203837394714355],
      "type": "VEC2"
    },
    {
      "bufferView": 1,
      "byteOffset": 3600312,
      "componentType": 5126,
      "count": 62637,
      "max": [0.997992753982544, 0.9999512434005737],
      "min": [4.29605133831501e-5, 0.0061203837394714355],
      "type": "VEC2"
    },
    {
      "bufferView": 0,
      "byteOffset": 1449864,
      "componentType": 5125,
      "count": 340398,
      "type": "SCALAR"
    }
  ],
  "asset": {
    "extras": {
      "author": "illustros (https://sketchfab.com/illustros)",
      "license": "SKETCHFAB Standard (https://sketchfab.com/licenses)",
      "source": "https://sketchfab.com/3d-models/medieval-knight-ed2e19900a7942289a2624cfef16bb4e",
      "title": "Medieval Knight"
    },
    "generator": "Sketchfab-16.59.0",
    "version": "2.0"
  },
  "bufferViews": [
    {
      "buffer": 0,
      "byteLength": 2811456,
      "name": "floatBufferViews",
      "target": 34963
    },
    {
      "buffer": 0,
      "byteLength": 4101408,
      "byteOffset": 2811456,
      "byteStride": 8,
      "name": "floatBufferViews",
      "target": 34962
    },
    {
      "buffer": 0,
      "byteLength": 3076056,
      "byteOffset": 6912864,
      "byteStride": 12,
      "name": "floatBufferViews",
      "target": 34962
    },
    {
      "buffer": 0,
      "byteLength": 2050704,
      "byteOffset": 9988920,
      "byteStride": 16,
      "name": "floatBufferViews",
      "target": 34962
    }
  ],
  "buffers": [
    {
      "byteLength": 12039624,
      "uri": "knight.bin"
    }
  ],
  "images": [
    {
      "uri": "textures/tripo_material_96cbe564-4d16-4a97-96b6-0835aa130e7d_baseColor.jpeg"
    },
    {
      "uri": "textures/tripo_material_96cbe564-4d16-4a97-96b6-0835aa130e7d_metallicRoughness.png"
    },
    {
      "uri": "textures/tripo_material_96cbe564-4d16-4a97-96b6-0835aa130e7d_normal.jpeg"
    }
  ],
  "materials": [
    {
      "name": "tripo_material_96cbe564-4d16-4a97-96b6-0835aa130e7d",
      "normalTexture": {
        "index": 2,
        "texCoord": 2
      },
      "pbrMetallicRoughness": {
        "baseColorTexture": {
          "index": 0
        },
        "metallicRoughnessTexture": {
          "index": 1,
          "texCoord": 1
        }
      }
    }
  ],
  "meshes": [
    {
      "name": "Object_0",
      "primitives": [
        {
          "attributes": {
            "NORMAL": 1,
            "POSITION": 0,
            "TANGENT": 2,
            "TEXCOORD_0": 3,
            "TEXCOORD_1": 4,
            "TEXCOORD_2": 5,
            "TEXCOORD_3": 6
          },
          "indices": 7,
          "material": 0,
          "mode": 4
        }
      ]
    },
    {
      "name": "Object_1",
      "primitives": [
        {
          "attributes": {
            "NORMAL": 9,
            "POSITION": 8,
            "TANGENT": 10,
            "TEXCOORD_0": 11,
            "TEXCOORD_1": 12,
            "TEXCOORD_2": 13,
            "TEXCOORD_3": 14
          },
          "indices": 15,
          "material": 0,
          "mode": 4
        }
      ]
    }
  ],
  "nodes": [
    {
      "children": [1],
      "matrix": [
        1.0, 0.0, 0.0, 0.0, 0.0, 2.220446049250313e-16, -1.0, 0.0, 0.0, 1.0,
        2.220446049250313e-16, 0.0, 0.0, 0.0, 0.0, 1.0
      ],
      "name": "Sketchfab_model"
    },
    {
      "children": [2],
      "name": "root"
    },
    {
      "children": [3],
      "matrix": [
        1.0, 0.0, 0.0, 0.0, 0.0, 2.220446049250313e-16, 1.0, 0.0, 0.0, -1.0,
        2.220446049250313e-16, 0.0, 0.0, 0.0, 0.0, 1.0
      ],
      "name": "GLTF_SceneRootNode"
    },
    {
      "children": [4, 5],
      "name": "tripo_node_96cbe564-4d16-4a97-96b6-0835aa130e7d_0"
    },
    {
      "mesh": 0,
      "name": "Object_4"
    },
    {
      "mesh": 1,
      "name": "Object_5"
    }
  ],
  "samplers": [
    {
      "magFilter": 9729,
      "minFilter": 9987,
      "wrapS": 10497,
      "wrapT": 10497
    }
  ],
  "scene": 0,
  "scenes": [
    {
      "name": "Sketchfab_Scene",
      "nodes": [0]
    }
  ],
  "textures": [
    {
      "sampler": 0,
      "source": 0
    },
    {
      "sampler": 0,
      "source": 1
    },
    {
      "sampler": 0,
      "source": 2
    }
  ]
}
