{
  "accessors": [
    {
      "bufferView": 2,
      "componentType": 5126,
      "count": 11310,
      "max": [0.49721530079841614, 0.6674330234527588, 3.2066805362701416],
      "min": [-0.5890097618103027, -1.7721999883651733, -0.045050300657749176],
      "type": "VEC3"
    },
    {
      "bufferView": 2,
      "byteOffset": 135720,
      "componentType": 5126,
      "count": 11310,
      "max": [0.9996296167373657, 0.9996994137763977, 0.9999292492866516],
      "min": [-0.9999290108680725, -0.9999257922172546, -0.9993258118629456],
      "type": "VEC3"
    },
    {
      "bufferView": 1,
      "componentType": 5126,
      "count": 11310,
      "max": [0.9803810119628906, 0.9956009984016418],
      "min": [0.03351199999451637, 0.00010097026824951172],
      "type": "VEC2"
    },
    {
      "bufferView": 0,
      "componentType": 5125,
      "count": 44340,
      "type": "SCALAR"
    },
    {
      "bufferView": 2,
      "byteOffset": 271440,
      "componentType": 5126,
      "count": 342,
      "max": [0.6368016600608826, 0.7529959678649902, 0.149227574467659],
      "min": [-0.6368016600608826, -0.7529959678649902, -0.05077243223786354],
      "type": "VEC3"
    },
    {
      "bufferView": 2,
      "byteOffset": 275544,
      "componentType": 5126,
      "count": 342,
      "max": [0.993861973285675, 0.9938621520996094, 0.9930618405342102],
      "min": [-0.993861973285675, -0.9938621520996094, -0.9930618405342102],
      "type": "VEC3"
    },
    {
      "bufferView": 1,
      "byteOffset": 90480,
      "componentType": 5126,
      "count": 342,
      "max": [1.0, 1.0],
      "min": [0.0, 0.0],
      "type": "VEC2"
    },
    {
      "bufferView": 0,
      "byteOffset": 177360,
      "componentType": 5125,
      "count": 1476,
      "type": "SCALAR"
    }
  ],
  "asset": {
    "extras": {
      "author": "jankhooo (https://sketchfab.com/jankhooo)",
      "license": "CC-BY-4.0 (http://creativecommons.org/licenses/by/4.0/)",
      "source": "https://sketchfab.com/3d-models/mummy-d54cb95e0be1487b85bbc8f1a37b2d6b",
      "title": "Mummy"
    },
    "generator": "Sketchfab-12.66.0",
    "version": "2.0"
  },
  "bufferViews": [
    {
      "buffer": 0,
      "byteLength": 183264,
      "name": "floatBufferViews",
      "target": 34963
    },
    {
      "buffer": 0,
      "byteLength": 93216,
      "byteOffset": 183264,
      "byteStride": 8,
      "name": "floatBufferViews",
      "target": 34962
    },
    {
      "buffer": 0,
      "byteLength": 279648,
      "byteOffset": 276480,
      "byteStride": 12,
      "name": "floatBufferViews",
      "target": 34962
    }
  ],
  "buffers": [
    {
      "byteLength": 556128,
      "uri": "mummy.bin"
    }
  ],
  "extensionsUsed": ["KHR_materials_unlit"],
  "images": [
    {
      "uri": "textures/Mummy_baseColor.jpeg"
    }
  ],
  "materials": [
    {
      "doubleSided": true,
      "extensions": {
        "KHR_materials_unlit": {}
      },
      "name": "Mummy",
      "pbrMetallicRoughness": {
        "baseColorTexture": {
          "index": 0
        },
        "metallicFactor": 0.0
      }
    },
    {
      "doubleSided": true,
      "extensions": {
        "KHR_materials_unlit": {}
      },
      "name": "default",
      "pbrMetallicRoughness": {
        "baseColorFactor": [
          0.025551637583323655, 0.025551637583323655, 0.025551637583323655, 1.0
        ],
        "metallicFactor": 0.0
      }
    }
  ],
  "meshes": [
    {
      "name": "Object_0",
      "primitives": [
        {
          "attributes": {
            "NORMAL": 1,
            "POSITION": 0,
            "TEXCOORD_0": 2
          },
          "indices": 3,
          "material": 0,
          "mode": 4
        }
      ]
    },
    {
      "name": "Object_1",
      "primitives": [
        {
          "attributes": {
            "NORMAL": 5,
            "POSITION": 4,
            "TEXCOORD_0": 6
          },
          "indices": 7,
          "material": 1,
          "mode": 4
        }
      ]
    }
  ],
  "nodes": [
    {
      "children": [1],
      "matrix": [
        0.9999995827674866, -2.055092233278608e-19, 0.000925531261600554, 0.0,
        0.000925531261600554, 2.220445122808027e-16, -0.9999995827674866, 0.0,
        0.0, 1.0, 2.220446049250313e-16, 0.0, 0.00047165248543024063,
        -4.862372012359134e-23, 2.1898176782997325e-7, 1.0
      ],
      "name": "Sketchfab_model"
    },
    {
      "children": [2, 3],
      "name": "Mummy_base.obj.cleaner.materialmerger.gles"
    },
    {
      "mesh": 0,
      "name": "Object_2"
    },
    {
      "mesh": 1,
      "name": "Object_3"
    }
  ],
  "samplers": [
    {
      "magFilter": 9729,
      "minFilter": 9987,
      "wrapS": 10497,
      "wrapT": 10497
    }
  ],
  "scene": 0,
  "scenes": [
    {
      "name": "Sketchfab_Scene",
      "nodes": [0]
    }
  ],
  "textures": [
    {
      "sampler": 0,
      "source": 0
    }
  ]
}
