{
  "accessors": [
    {
      "bufferView": 2,
      "componentType": 5126,
      "count": 56,
      "max": [1.026357650756836, 4.322436332702637, 1.1045273542404175],
      "min": [-3.3967669010162354, -1.0, -1.3316599130630493],
      "type": "VEC3"
    },
    {
      "bufferView": 2,
      "byteOffset": 672,
      "componentType": 5126,
      "count": 56,
      "max": [0.998939037322998, 0.9304128289222717, 0.9991361498832703],
      "min": [-0.9987397789955139, -1.0, -0.9991360902786255],
      "type": "VEC3"
    },
    {
      "bufferView": 1,
      "componentType": 5126,
      "count": 56,
      "max": [0.9986251592636108, 0.9900208711624146],
      "min": [0.0013749997597187757, 0.5016458034515381],
      "type": "VEC2"
    },
    {
      "bufferView": 0,
      "componentType": 5125,
      "count": 84,
      "type": "SCALAR"
    },
    {
      "bufferView": 2,
      "byteOffset": 1344,
      "componentType": 5126,
      "count": 56,
      "max": [1.026357650756836, 4.322436332702637, 1.104527235031128],
      "min": [-3.249119281768799, -1.0, -1.3316597938537598],
      "type": "VEC3"
    },
    {
      "bufferView": 2,
      "byteOffset": 2016,
      "componentType": 5126,
      "count": 56,
      "max": [0.998939037322998, 0.9238267540931702, 0.9991361498832703],
      "min": [-0.9987397789955139, -1.0, -0.9991360902786255],
      "type": "VEC3"
    },
    {
      "bufferView": 1,
      "byteOffset": 448,
      "componentType": 5126,
      "count": 56,
      "max": [0.9970352649688721, 0.9900208711624146],
      "min": [0.002964496612548828, 0.5016458034515381],
      "type": "VEC2"
    },
    {
      "bufferView": 0,
      "byteOffset": 336,
      "componentType": 5125,
      "count": 84,
      "type": "SCALAR"
    },
    {
      "bufferView": 2,
      "byteOffset": 2688,
      "componentType": 5126,
      "count": 40,
      "max": [1.1211529970169067, 0.3719736933708191, 1.0864567756652832],
      "min": [-1.1211525201797485, -1.1753182411193848, -1.0864567756652832],
      "type": "VEC3"
    },
    {
      "bufferView": 2,
      "byteOffset": 3168,
      "componentType": 5126,
      "count": 40,
      "max": [0.884675145149231, 1.0, 0.998862624168396],
      "min": [-0.9668721556663513, -1.0, -0.9998835325241089],
      "type": "VEC3"
    },
    {
      "bufferView": 1,
      "byteOffset": 896,
      "componentType": 5126,
      "count": 40,
      "max": [0.9850385785102844, 0.9675171375274658],
      "min": [0.013487943448126316, 0.03027045726776123],
      "type": "VEC2"
    },
    {
      "bufferView": 0,
      "byteOffset": 672,
      "componentType": 5125,
      "count": 60,
      "type": "SCALAR"
    },
    {
      "bufferView": 2,
      "byteOffset": 3648,
      "componentType": 5126,
      "count": 24,
      "max": [1.0, 0.7328504323959351, -0.3432793915271759],
      "min": [-1.0, -1.0, -1.0],
      "type": "VEC3"
    },
    {
      "bufferView": 2,
      "byteOffset": 3936,
      "componentType": 5126,
      "count": 24,
      "max": [0.9767341017723083, 1.0, 1.0],
      "min": [-0.9767341017723083, -1.0, -1.0],
      "type": "VEC3"
    },
    {
      "bufferView": 1,
      "byteOffset": 1216,
      "componentType": 5126,
      "count": 24,
      "max": [0.996818482875824, 1.0],
      "min": [0.0031815371476113796, 0.0],
      "type": "VEC2"
    },
    {
      "bufferView": 0,
      "byteOffset": 912,
      "componentType": 5125,
      "count": 36,
      "type": "SCALAR"
    }
  ],
  "asset": {
    "extras": {
      "author": "Kroko.blend (https://sketchfab.com/jaromir.ternavskiy)",
      "license": "CC-BY-4.0 (http://creativecommons.org/licenses/by/4.0/)",
      "source": "https://sketchfab.com/3d-models/portal-door-46983acd0eac4fd4a9bb206b1df029ba",
      "title": "Portal Door"
    },
    "generator": "Sketchfab-15.70.0",
    "version": "2.0"
  },
  "bufferViews": [
    {
      "buffer": 0,
      "byteLength": 1056,
      "name": "floatBufferViews",
      "target": 34963
    },
    {
      "buffer": 0,
      "byteLength": 1408,
      "byteOffset": 1056,
      "byteStride": 8,
      "name": "floatBufferViews",
      "target": 34962
    },
    {
      "buffer": 0,
      "byteLength": 4224,
      "byteOffset": 2464,
      "byteStride": 12,
      "name": "floatBufferViews",
      "target": 34962
    }
  ],
  "buffers": [
    {
      "byteLength": 6688,
      "uri": "portal.bin"
    }
  ],
  "extensionsUsed": ["KHR_materials_clearcoat"],
  "images": [
    {
      "uri": "textures/Material.001_baseColor.jpeg"
    },
    {
      "uri": "textures/Material_baseColor.jpeg"
    },
    {
      "uri": "textures/Material.002_baseColor.jpeg"
    }
  ],
  "materials": [
    {
      "doubleSided": true,
      "name": "Material.001",
      "pbrMetallicRoughness": {
        "baseColorTexture": {
          "index": 0
        },
        "metallicFactor": 0.442623,
        "roughnessFactor": 0.079235
      }
    },
    {
      "doubleSided": true,
      "extensions": {
        "KHR_materials_clearcoat": {
          "clearcoatFactor": 0.803279,
          "clearcoatRoughnessFactor": 0.03
        }
      },
      "name": "Material",
      "pbrMetallicRoughness": {
        "baseColorTexture": {
          "index": 1
        },
        "metallicFactor": 0.420765,
        "roughnessFactor": 0.144809
      }
    },
    {
      "alphaMode": "BLEND",
      "doubleSided": true,
      "extensions": {
        "KHR_materials_clearcoat": {
          "clearcoatFactor": 0.464481,
          "clearcoatRoughnessFactor": 0.499945
        }
      },
      "name": "Material.002",
      "pbrMetallicRoughness": {
        "baseColorFactor": [1.0, 1.0, 1.0, 0.333333],
        "baseColorTexture": {
          "index": 2
        },
        "metallicFactor": 0.0,
        "roughnessFactor": 0.270492
      }
    }
  ],
  "meshes": [
    {
      "name": "Object_0",
      "primitives": [
        {
          "attributes": {
            "NORMAL": 1,
            "POSITION": 0,
            "TEXCOORD_0": 2
          },
          "indices": 3,
          "material": 0,
          "mode": 4
        }
      ]
    },
    {
      "name": "Object_1",
      "primitives": [
        {
          "attributes": {
            "NORMAL": 5,
            "POSITION": 4,
            "TEXCOORD_0": 6
          },
          "indices": 7,
          "material": 0,
          "mode": 4
        }
      ]
    },
    {
      "name": "Object_2",
      "primitives": [
        {
          "attributes": {
            "NORMAL": 9,
            "POSITION": 8,
            "TEXCOORD_0": 10
          },
          "indices": 11,
          "material": 1,
          "mode": 4
        }
      ]
    },
    {
      "name": "Object_3",
      "primitives": [
        {
          "attributes": {
            "NORMAL": 13,
            "POSITION": 12,
            "TEXCOORD_0": 14
          },
          "indices": 15,
          "material": 2,
          "mode": 4
        }
      ]
    }
  ],
  "nodes": [
    {
      "children": [1],
      "matrix": [
        1.0, 0.0, 0.0, 0.0, 0.0, 2.220446049250313e-16, -1.0, 0.0, 0.0, 1.0,
        2.220446049250313e-16, 0.0, 0.0, 0.0, 0.0, 1.0
      ],
      "name": "Sketchfab_model"
    },
    {
      "children": [2],
      "name": "root"
    },
    {
      "children": [3, 5, 7, 9],
      "matrix": [
        1.0, 0.0, 0.0, 0.0, 0.0, 2.220446049250313e-16, 1.0, 0.0, 0.0, -1.0,
        2.220446049250313e-16, 0.0, 0.0, 0.0, 0.0, 1.0
      ],
      "name": "GLTF_SceneRootNode"
    },
    {
      "children": [4],
      "matrix": [
        0.6751248418238892, 0.0, -0.04783580356587967, 0.0, 0.0, 1.0, 0.0, 0.0,
        0.05153591176278547, 0.0, 0.7273458724108847, 0.0, 5.604623317718506,
        1.9469417333602905, -0.3306526243686676, 1.0
      ],
      "name": "Cube.001_0"
    },
    {
      "mesh": 0,
      "name": "Object_4"
    },
    {
      "children": [6],
      "matrix": [
        -0.7363478049150456, -0.0, 0.052173741462280786, -0.0, -0.0,
        1.0000000000000004, -0.0, -0.0, 0.05153591176278547, 0.0,
        0.7273458724108848, -0.0, 0.5337382555007935, 1.9469417333602905,
        0.02864372730255127, 1.0
      ],
      "name": "Cube.002_1"
    },
    {
      "mesh": 1,
      "name": "Object_6"
    },
    {
      "children": [8],
      "matrix": [
        -1.0041402610880035, -1.519028462581255e-7, 0.03054788487021963, 0.0,
        1.5120656776951324e-7, -0.9999999999999882, -2.2994659081060983e-9, 0.0,
        0.02685238123204226, 2.0305977018157447e-9, 0.882665271776768, 0.0,
        3.1223442554473877, 5.267150402069092, -0.3026241064071655, 1.0
      ],
      "name": "Cube.003_2"
    },
    {
      "mesh": 2,
      "name": "Object_8"
    },
    {
      "children": [10],
      "matrix": [
        2.372521288577888, 0.0, -0.0638276620365807, 0.0, 0.0,
        2.595574378967285, 0.0, 0.0, 0.031273856930799794, 0.0,
        1.1624723352977833, 0.0, 3.164824962615967, 3.5242326259613037,
        0.5605571269989014, 1.0
      ],
      "name": "Cube.005_3"
    },
    {
      "mesh": 3,
      "name": "Object_10"
    }
  ],
  "samplers": [
    {
      "magFilter": 9729,
      "minFilter": 9987,
      "wrapS": 10497,
      "wrapT": 10497
    }
  ],
  "scene": 0,
  "scenes": [
    {
      "name": "Sketchfab_Scene",
      "nodes": [0]
    }
  ],
  "textures": [
    {
      "sampler": 0,
      "source": 0
    },
    {
      "sampler": 0,
      "source": 1
    },
    {
      "sampler": 0,
      "source": 2
    }
  ]
}
